<svg width="155" height="41" viewBox="0 0 155 41" fill="none" xmlns="http://www.w3.org/2000/svg">
    <path d="M107.11 10.136C103.918 3.808 97.3096 0 89.4136 0C78.1576 0 68.9176 9.128 68.9176 20.328C68.9176 31.528 77.9336 40.656 89.3576 40.656C100.558 40.656 108.734 32.256 108.734 21.28V18.144H88.3496V25.2H99.7176C98.6536 29.68 94.6216 32.76 89.4136 32.76C82.6936 32.76 77.4296 27.216 77.4296 20.328C77.4296 13.384 82.6936 7.952 89.3576 7.952C93.8936 7.952 97.5336 10.024 99.4936 13.832L107.11 10.136Z" fill="white"/>
    <path d="M131.184 10.136C127.992 3.808 121.384 0 113.488 0C102.232 0 93.992 9.128 93.992 20.328C93.992 31.528 103.008 40.656 114.432 40.656C125.632 40.656 133.808 32.256 133.808 21.28V18.144H113.424V25.2H124.792C123.728 29.68 119.696 32.76 114.488 32.76C107.768 32.76 102.504 27.216 102.504 20.328C102.504 13.384 107.768 7.952 114.432 7.952C118.968 7.952 122.608 10.024 124.568 13.832L131.184 10.136Z" fill="white"/>

</svg>

